<mxfile host="app.diagrams.net" modified="2024-06-11T19:11:10.130Z" agent="Mozilla/5.0 (Windows NT 10.0; Win64; x64) AppleWebKit/537.36 (KHTML, like Gecko) Chrome/109.0.0.0 Safari/537.36" version="24.5.3" etag="s0otaBrXhvK3Gl0e6RtE" type="github">
  <diagram name="PÃ¡gina-1" id="Y6HPzfgJ33VnPXeaoitC">
    <mxGraphModel>
      <root>
        <mxCell id="0" />
        <mxCell id="1" parent="0" />
      </root>
    </mxGraphModel>
  </diagram>
</mxfile>
